<?xml version="1.0" encoding="UTF-8"?> <svg xmlns="http://www.w3.org/2000/svg" width="400" height="120" viewBox="0 0 400 120" fill="none"> <path fill-rule="evenodd" clip-rule="evenodd" d="M60 8H340C368.719 8 392 31.2812 392 60C392 88.7188 368.719 112 340 112H60C31.2812 112 8 88.7188 8 60C8 31.2812 31.2812 8 60 8ZM0 60C0 26.8629 26.8629 0 60 0H340C373.137 0 400 26.8629 400 60C400 93.1371 373.137 120 340 120H60C26.8629 120 0 93.1371 0 60ZM109.964 42.652V72H102.396V49.252H90.208V72H82.64V42.652H109.964ZM136.857 61.352C136.857 67.336 132.545 72.528 125.241 72.528C118.025 72.528 113.669 67.336 113.669 61.352C113.669 55.368 118.025 50.22 125.241 50.22C132.545 50.22 136.857 55.368 136.857 61.352ZM120.665 61.352C120.665 64.212 122.293 66.544 125.241 66.544C128.233 66.544 129.905 64.212 129.905 61.352C129.905 58.536 128.233 56.204 125.241 56.204C122.293 56.204 120.665 58.536 120.665 61.352ZM145.533 77.412H138.757V66.368C140.341 66.236 141.397 65.576 142.013 60.956L143.421 50.748H161.593V66.104H163.925V77.412H157.149V72H145.533V77.412ZM154.817 56.644H149.273L148.701 61.176C148.437 63.332 147.733 64.96 146.633 66.104H154.817V56.644ZM189.465 61.352C189.465 68.568 185.461 72.528 180.137 72.528C177.761 72.528 175.605 71.604 173.845 69.492V80.096H167.069V50.748H173.845V53.212C175.517 51.188 177.717 50.22 180.137 50.22C185.461 50.22 189.465 54.18 189.465 61.352ZM173.845 64.608C174.681 65.708 176.441 66.544 177.893 66.544C180.533 66.544 182.557 64.564 182.557 61.352C182.557 58.184 180.533 56.204 177.893 56.204C176.441 56.204 174.681 56.996 173.845 58.14V64.608ZM214.76 61.352C214.76 67.336 210.448 72.528 203.144 72.528C195.928 72.528 191.572 67.336 191.572 61.352C191.572 55.368 195.928 50.22 203.144 50.22C210.448 50.22 214.76 55.368 214.76 61.352ZM198.568 61.352C198.568 64.212 200.196 66.544 203.144 66.544C206.136 66.544 207.808 64.212 207.808 61.352C207.808 58.536 206.136 56.204 203.144 56.204C200.196 56.204 198.568 58.536 198.568 61.352ZM223.919 61.308C223.919 64.212 225.547 66.544 228.495 66.544C231.487 66.544 233.159 64.212 233.159 61.308C233.159 58.536 231.487 56.204 228.495 56.204C225.547 56.204 223.919 58.536 223.919 61.308ZM240.111 61.308C240.111 67.292 235.843 72.528 228.495 72.528C221.235 72.528 216.967 67.292 216.967 60.384C216.967 50.044 220.839 45.292 228.319 44.236C230.827 43.84 232.015 43.312 232.015 42.652H239.319C239.319 46.788 234.083 48.02 230.651 48.504C225.723 49.208 223.875 51.056 223.259 53.344C224.975 51.232 227.263 50.22 230.123 50.22C236.195 50.22 240.111 55.412 240.111 61.308ZM250.502 63.948V72H243.726V50.748H250.502V58.052H258.114V50.748H264.89V72H258.114V63.948H250.502ZM288.904 69.712C286.792 71.604 283.272 72.528 280.016 72.528C273.46 72.528 268.4 68.26 268.4 61.352C268.4 55.192 273.064 50.22 279.708 50.22C286 50.22 290.576 54.84 290.576 62.056V63.508H275.44C275.836 65.488 277.684 67.292 280.764 67.292C282.26 67.292 284.856 66.632 286.044 65.488L288.904 69.712ZM275.352 59.108H284.108C283.932 57.612 282.832 55.456 279.708 55.456C276.76 55.456 275.616 57.568 275.352 59.108ZM313.009 69.712C310.897 71.604 307.377 72.528 304.121 72.528C297.565 72.528 292.505 68.26 292.505 61.352C292.505 55.192 297.169 50.22 303.813 50.22C310.105 50.22 314.681 54.84 314.681 62.056V63.508H299.545C299.941 65.488 301.789 67.292 304.869 67.292C306.365 67.292 308.961 66.632 310.149 65.488L313.009 69.712ZM299.457 59.108H308.213C308.037 57.612 306.937 55.456 303.813 55.456C300.865 55.456 299.721 57.568 299.457 59.108Z" fill="#ED7BBB"></path> </svg> 