<?xml version="1.0" encoding="UTF-8"?> <svg xmlns="http://www.w3.org/2000/svg" width="144" height="148" viewBox="0 0 144 148" fill="none"> <path fill-rule="evenodd" clip-rule="evenodd" d="M117.593 0C121.546 0 124.756 3.22767 124.756 7.20204C124.756 11.1764 121.546 14.4041 117.593 14.4041C113.64 14.4041 110.43 11.1764 110.43 7.20204C110.442 3.22767 113.64 0 117.593 0ZM119.509 62.7227C125.69 71.9963 133.511 74.8385 143.668 68.5639C144.003 72.0565 144.087 75.6214 143.908 79.2344C141.907 119.171 108.095 149.918 68.377 147.907C28.6713 145.883 -1.90746 111.884 0.0927974 71.9601C2.08108 32.0238 37.0676 0.939396 76.7733 2.95067C73.2519 14.0307 76.2343 23.8703 85.1935 27.2184C77.0727 53.4492 95.2068 70.6113 119.509 62.7227ZM35.9657 57.5561C41.9185 57.5561 46.7335 62.4096 46.7335 68.3832C46.7335 74.3568 41.9065 79.2103 35.9657 79.2103C30.0128 79.2103 25.1978 74.3568 25.1978 68.3832C25.1978 62.4096 30.0248 57.5561 35.9657 57.5561ZM69.8862 71.358C73.3118 71.358 76.0906 74.1521 76.0906 77.5965C76.0906 81.041 73.3118 83.8351 69.8862 83.8351C66.4606 83.8351 63.6818 81.041 63.6818 77.5965C63.6698 74.1521 66.4486 71.358 69.8862 71.358ZM42.9606 97.0589C47.1407 97.0589 50.5304 100.467 50.5304 104.67C50.5304 108.874 47.1407 112.282 42.9606 112.282C38.7804 112.282 35.3907 108.874 35.3907 104.67C35.3907 100.455 38.7804 97.0589 42.9606 97.0589ZM59.274 38.8163C62.5559 38.8163 65.2029 41.49 65.2029 44.7779C65.2029 48.0778 62.5439 50.7394 59.274 50.7394C55.9922 50.7394 53.3451 48.0658 53.3451 44.7779C53.3451 41.49 56.0042 38.8163 59.274 38.8163ZM91.4937 99.7205C96.9915 99.7205 101.435 104.201 101.435 109.717C101.435 115.245 96.9795 119.713 91.4937 119.713C85.996 119.713 81.5523 115.233 81.5523 109.717C81.5523 104.201 86.008 99.7205 91.4937 99.7205ZM112.431 27.8206C116.12 27.8206 119.114 30.8315 119.114 34.5409C119.114 38.2503 116.12 41.2612 112.431 41.2612C108.741 41.2612 105.747 38.2503 105.747 34.5409C105.747 30.8315 108.741 27.8206 112.431 27.8206Z" fill="#ED7BBB"></path> </svg> 