<?xml version="1.0" encoding="UTF-8"?> <svg xmlns="http://www.w3.org/2000/svg" width="134" height="32" viewBox="0 0 134 32" fill="none"> <path d="M11.6532 31.5608C16.2439 31.5608 19.113 29.4862 20.3931 27.6323L15.979 23.483C15.1404 24.6748 13.772 25.5576 11.9622 25.5576C9.13719 25.5576 6.9743 23.5713 6.9743 20.349C6.9743 17.1267 9.13719 15.1845 11.9622 15.1845C13.772 15.1845 15.1404 15.979 15.979 17.215L20.3931 13.1099C19.113 11.2118 16.2439 9.18132 11.6532 9.18132C4.98796 9.18132 0 13.6837 0 20.349C0 27.0584 4.98796 31.5608 11.6532 31.5608ZM32.3554 31.5608C39.6828 31.5608 44.0086 26.3522 44.0086 20.349C44.0086 14.3458 39.6828 9.18132 32.3554 9.18132C25.1162 9.18132 20.7463 14.3458 20.7463 20.349C20.7463 26.3522 25.1162 31.5608 32.3554 31.5608ZM32.3554 25.5576C29.3979 25.5576 27.7647 23.2182 27.7647 20.349C27.7647 17.524 29.3979 15.1845 32.3554 15.1845C35.3569 15.1845 37.0343 17.524 37.0343 20.349C37.0343 23.2182 35.3569 25.5576 32.3554 25.5576ZM56.4639 31.5608C63.7913 31.5608 68.1172 26.3522 68.1172 20.349C68.1172 14.3458 63.7913 9.18132 56.4639 9.18132C49.2248 9.18132 44.8549 14.3458 44.8549 20.349C44.8549 26.3522 49.2248 31.5608 56.4639 31.5608ZM56.4639 25.5576C53.5065 25.5576 51.8733 23.2182 51.8733 20.349C51.8733 17.524 53.5065 15.1845 56.4639 15.1845C59.4655 15.1845 61.1429 17.524 61.1429 20.349C61.1429 23.2182 59.4655 25.5576 56.4639 25.5576ZM92.2707 31.0311L84.0164 19.422L91.8734 9.71102H83.6632L77.1745 18.2302V1.58907H70.3768V31.0311H77.1745V25.9108L79.205 23.483L83.8839 31.0311H92.2707ZM96.5484 7.81295C98.7113 7.81295 100.433 6.04731 100.433 3.88441C100.433 1.7215 98.7113 0 96.5484 0C94.3855 0 92.664 1.7215 92.664 3.88441C92.664 6.04731 94.3855 7.81295 96.5484 7.81295ZM99.9472 31.0311V9.71102H93.1495V31.0311H99.9472ZM113.791 31.5608C117.058 31.5608 120.589 30.6338 122.708 28.7358L119.839 24.4982C118.647 25.6459 116.043 26.308 114.542 26.308C111.452 26.308 109.598 24.4982 109.201 22.5119H124.385V21.0552C124.385 13.8161 119.795 9.18132 113.482 9.18132C106.817 9.18132 102.138 14.1693 102.138 20.349C102.138 27.2791 107.214 31.5608 113.791 31.5608ZM117.897 18.0978H109.112C109.377 16.5529 110.525 14.4341 113.482 14.4341C116.616 14.4341 117.72 16.597 117.897 18.0978ZM132.896 20.7463L133.912 1.58907H125.79L126.849 20.7463H132.896ZM129.851 31.5167C132.102 31.5167 134 29.6186 134 27.4115C134 25.1604 132.102 23.2623 129.851 23.2623C127.6 23.2623 125.746 25.1604 125.746 27.4115C125.746 29.6186 127.6 31.5167 129.851 31.5167Z" fill="#ED7BBB"></path> </svg> 