<?xml version="1.0" encoding="UTF-8"?> <svg xmlns="http://www.w3.org/2000/svg" width="808" height="120" viewBox="0 0 808 120" fill="none"> <path d="M748 0H60C26.8629 0 0 26.8629 0 60C0 93.1371 26.8629 120 60 120H748C781.137 120 808 93.1371 808 60C808 26.8629 781.137 0 748 0Z" fill="#2CB2DA"></path> <path d="M345.964 72V42.652H318.64V72H326.208V49.252H338.396V72H345.964ZM362.825 72.528C368.149 72.528 372.153 68.568 372.153 61.352C372.153 54.18 368.149 50.22 362.825 50.22C360.405 50.22 358.205 51.188 356.533 53.212V50.748H349.757V80.096H356.533V69.492C358.293 71.604 360.449 72.528 362.825 72.528ZM360.581 66.544C359.129 66.544 357.369 65.708 356.533 64.608V58.14C357.369 56.996 359.129 56.204 360.581 56.204C363.221 56.204 365.245 58.184 365.245 61.352C365.245 64.564 363.221 66.544 360.581 66.544ZM380.816 72L388.736 60.296V72H395.512V50.748H388.692L381.124 61.88V50.748H374.348V72H380.816ZM405.884 72V63.948H413.496V72H420.272V50.748H413.496V58.052H405.884V50.748H399.11V72H405.884ZM430.868 72L434.432 65.18H438.172V72H444.948V50.748H431.176C426.248 50.748 423.432 54.092 423.432 57.964C423.432 61.88 425.852 63.904 427.876 64.608L423.3 72H430.868ZM432.364 59.724C431.088 59.724 430.296 58.976 430.296 57.964C430.296 56.952 431.132 56.204 432.364 56.204H438.172V59.724H432.364ZM459.244 72V56.644H465.008V50.748H446.66V56.644H452.468V72H459.244ZM466.864 50.748V72H480.636C485.564 72 488.38 68.656 488.38 64.784C488.38 60.868 485.784 57.568 480.636 57.568H473.64V50.748H466.864ZM479.448 63.024C480.724 63.024 481.516 63.772 481.516 64.784C481.516 65.796 480.724 66.544 479.448 66.544H473.64V63.024H479.448Z" fill="white"></path> </svg> 